HIERARCHY
ROOT hip
{
	OFFSET 0.000000 0.000000 0.000000 
	CHANNELS 6 Xposition Yposition Zposition Xrotation Zrotation Yrotation
	JOINT abdomen
	{
		OFFSET 0.000000 3.402643 0.000000 
		CHANNELS 3 Xrotation Zrotation Yrotation
		JOINT chest
		{
			OFFSET 0.000000 8.438565 -0.680529 
			CHANNELS 3 Xrotation Zrotation Yrotation
			JOINT neck
			{
				OFFSET 0.000000 10.207942 -0.272212 
				CHANNELS 3 Xrotation Zrotation Yrotation
				JOINT head
				{
					OFFSET 0.000000 3.130431 0.000000 
					CHANNELS 3 Xrotation Zrotation Yrotation
					End Site
					{
						OFFSET 0.000000 3.130435 0.000000 
					}
				}
			}
			JOINT lCollar
			{
				OFFSET 3.470700 6.669187 -0.816635 
				CHANNELS 3 Yrotation Zrotation Xrotation
				JOINT lShldr
				{
					OFFSET 3.198488 0.000000 0.000000 
					CHANNELS 3 Zrotation Yrotation Xrotation
					JOINT lForeArm
					{
						OFFSET 10.139888 0.000000 0.000000 
						CHANNELS 3 Yrotation Zrotation Xrotation
						JOINT lHand
						{
							OFFSET 8.370511 0.000000 0.000000 
							CHANNELS 3 Zrotation Yrotation Xrotation
							End Site
							{
								OFFSET 4.083176 0.000000 0.000000 
							}
						}
					}
				}
			}
			JOINT rCollar
			{
				OFFSET -3.470700 6.669187 -0.816635 
				CHANNELS 3 Yrotation Zrotation Xrotation
				JOINT rShldr
				{
					OFFSET -3.198488 0.000000 0.000000 
					CHANNELS 3 Zrotation Yrotation Xrotation
					JOINT rForeArm
					{
						OFFSET -10.139888 0.000000 0.000000 
						CHANNELS 3 Yrotation Zrotation Xrotation
						JOINT rHand
						{
							OFFSET -8.370511 0.000000 0.000000 
							CHANNELS 3 Zrotation Yrotation Xrotation
							End Site
							{
								OFFSET -4.083176 0.000000 0.000000 
							}
						}
					}
				}
			}
		}
	}
	JOINT lThigh
	{
		OFFSET 5.308129 -1.633274 1.361059 
		CHANNELS 3 Xrotation Zrotation Yrotation
		JOINT lShin
		{
			OFFSET -2.041588 -20.007561 0.000000 
			CHANNELS 3 Xrotation Zrotation Yrotation
			JOINT lFoot
			{
				OFFSET 0.000000 -19.190928 -1.224953 
				CHANNELS 3 Xrotation Yrotation Zrotation
				End Site
				{
					OFFSET 0.000000 -2.449906 4.627600 
				}
			}
		}
	}
	JOINT rThigh
	{
		OFFSET -5.308129 -1.633274 1.361059 
		CHANNELS 3 Xrotation Zrotation Yrotation
		JOINT rShin
		{
			OFFSET 2.041588 -20.007561 0.000000 
			CHANNELS 3 Xrotation Zrotation Yrotation
			JOINT rFoot
			{
				OFFSET 0.000000 -19.190928 -1.224953 
				CHANNELS 3 Xrotation Yrotation Zrotation
				End Site
				{
					OFFSET 0.000000 -2.449906 4.627600 
				}
			}
		}
	}
}
MOTION
Frames: 20
Frame Time: 0.016667
-0.152180 34.874165 -0.728780 11.070500 3.047790 16.172400 -13.130200 4.371570 0.184669 12.645600 4.991350 -0.067600 21.691900 22.973400 -25.503799 -8.603520 0.000000 0.000000 2.000000 -2.000000 0.000000 -82.460403 2.569650 135.182007 58.398998 -0.286489 0.116497 5.535590 -0.673919 -142.727005 -2.000000 2.000000 0.000000 63.098499 13.626100 148.544998 -76.182198 0.247502 0.132772 6.609560 0.746306 -121.880997 -19.447884 -6.299870 4.831132 74.343285 0.116208 4.398178 -17.679529 -13.760289 -5.331791 -60.620853 -7.196306 -24.308159 68.992149 -0.047537 -4.511344 -16.701982 -28.410179 -3.650836 
-0.227939 34.721050 -1.027502 10.863800 2.915640 16.565399 -13.012300 4.452320 0.403069 12.625400 5.039470 0.031413 21.737499 23.375799 -25.781500 -8.603520 0.000000 0.000000 2.000000 -2.000000 0.000000 -82.762703 2.637570 134.917999 58.232899 -0.286826 0.116289 5.532620 -0.666811 -142.804993 -2.000000 2.000000 0.000000 62.844501 14.153900 148.283005 -76.152901 0.247570 0.132755 6.617740 0.751639 -121.890999 -19.744555 -6.186304 4.256842 75.098869 0.049079 4.419925 -18.639452 -13.929534 -5.652829 -60.976089 -7.269312 -24.308111 69.167763 -0.048498 -4.501768 -16.046146 -28.758898 -3.324450 
-0.276943 34.587929 -1.272906 10.618900 2.860400 17.255100 -12.836300 4.484430 0.438312 12.782100 5.051040 0.063356 21.484699 23.721901 -25.952299 -8.603520 0.000000 0.000000 2.000000 -2.000000 0.000000 -83.084702 2.735010 134.791000 58.330601 -0.286628 0.116412 5.532500 -0.666726 -142.796005 -2.000000 2.000000 0.000000 62.590401 14.613600 147.962006 -76.074799 0.247751 0.132711 6.609810 0.745894 -121.862000 -20.193310 -6.200201 3.609562 75.922668 -0.021031 4.433744 -18.998711 -14.174464 -5.853371 -61.127201 -7.611120 -24.321697 69.472046 -0.028448 -4.519794 -16.249929 -28.970942 -3.414327 
-0.325943 34.454586 -1.518332 10.374000 2.814630 17.937300 -12.660400 4.526070 0.471547 12.929100 5.062470 0.084730 21.218901 24.059999 -26.138599 -8.603520 0.000000 0.000000 2.000000 -2.000000 0.000000 -83.416496 2.832450 134.664001 58.418499 -0.286450 0.116522 5.532390 -0.666640 -142.785995 -2.000000 2.000000 0.000000 62.336399 15.083000 147.639999 -75.986900 0.247955 0.132660 6.611770 0.739951 -121.822998 -20.622341 -6.213660 2.960149 76.746834 -0.096254 4.450731 -19.383099 -14.396024 -6.067196 -61.296448 -7.967044 -24.309454 69.795464 -0.008976 -4.526944 -16.501534 -29.186340 -3.536685 
-0.375456 34.342693 -1.753971 10.099400 2.720910 18.404699 -12.601800 4.563190 0.517119 12.909600 5.052560 0.103832 21.329201 24.205900 -26.226200 -8.603520 0.000000 0.000000 2.000000 -2.000000 0.000000 -83.562500 2.871040 134.380005 58.125500 -0.287044 0.116154 5.526170 -0.674179 -142.755997 -2.000000 2.000000 0.000000 62.297199 15.190600 147.533005 -76.074799 0.247751 0.132711 6.619700 0.745687 -121.851997 -21.116497 -5.969851 2.781315 77.670746 -0.195571 4.498126 -19.333059 -14.668372 -6.143439 -61.466572 -8.060855 -24.203405 69.991310 -0.001660 -4.530187 -16.362246 -29.533598 -3.490218 
-0.424968 34.230808 -1.989624 9.815100 2.627050 18.882500 -12.533300 4.587510 0.556389 12.899900 5.042760 0.123799 21.428400 24.342300 -26.313400 -8.603520 0.000000 0.000000 2.000000 -2.000000 0.000000 -83.718300 2.909650 134.106995 57.822800 -0.287657 0.115771 5.535590 -0.673919 -142.727005 -2.000000 2.000000 0.000000 62.267799 15.288500 147.425995 -76.162598 0.247548 0.132761 6.609690 0.746100 -121.871002 -21.633350 -5.733051 2.603799 78.612625 -0.277372 4.516434 -19.285683 -14.929962 -6.224034 -61.648907 -8.146884 -24.090965 70.196899 0.012549 -4.528189 -16.259212 -29.884399 -3.474656 
-0.476963 34.156326 -2.201393 9.413580 2.533820 19.296900 -12.572900 4.629210 0.583858 12.703600 5.059770 0.133274 21.729300 24.755600 -26.318300 -8.603520 0.000000 0.000000 2.000000 -2.000000 0.000000 -83.767799 3.300860 134.457993 58.027901 -0.287242 0.116031 5.527170 -0.652960 -143.009995 -2.000000 2.000000 0.000000 62.248199 15.210400 147.397003 -76.065002 0.247774 0.132705 6.615640 0.757811 -121.940002 -21.836626 -5.473877 2.412519 79.348228 -0.340728 4.520872 -19.397097 -15.074698 -6.308018 -61.576744 -8.119252 -24.030897 70.206238 0.007559 -4.522053 -16.156851 -30.314398 -3.487769 
-0.528959 34.081844 -2.413161 9.012210 2.449880 19.714701 -12.612500 4.667460 0.602145 12.507300 5.076710 0.132861 22.020399 25.154200 -26.351900 -8.603520 0.000000 0.000000 2.000000 -2.000000 0.000000 -83.807503 3.701840 134.809006 58.223202 -0.286846 0.116277 5.533990 -0.623882 -143.283997 -2.000000 2.000000 0.000000 62.228600 15.142100 147.376999 -75.967300 0.248000 0.132649 6.613270 0.764416 -122.008003 -22.076847 -5.207606 2.242372 80.123894 -0.409796 4.546317 -19.526836 -15.227521 -6.398160 -61.504841 -8.088160 -23.972893 70.225418 -0.010743 -4.523243 -16.081823 -30.720896 -3.513535 
-0.559027 33.996017 -2.642994 8.758210 2.470890 20.009501 -12.601700 4.630250 0.640890 12.468700 5.027870 0.146011 22.311800 25.285299 -26.419399 -8.603520 0.000000 0.000000 2.000000 -2.000000 0.000000 -83.700996 3.829670 135.326004 58.408699 -0.286469 0.116510 5.534310 -0.624118 -143.313004 -2.000000 2.000000 0.000000 62.316200 14.976400 147.220001 -75.957603 0.248022 0.132643 6.613270 0.764416 -122.008003 -22.333069 -5.258023 1.979834 80.673027 -0.459750 4.542886 -19.639811 -15.393056 -6.472977 -61.625080 -8.145869 -23.792295 70.244148 -0.016564 -4.506985 -15.908444 -31.031708 -3.435546 
-0.589100 33.910080 -2.872804 8.504260 2.501520 20.315399 -12.591100 4.602570 0.677497 12.430100 4.979050 0.168994 22.603701 25.416000 -26.485901 -8.603520 0.000000 0.000000 2.000000 -2.000000 0.000000 -83.594398 3.957520 135.852997 58.594299 -0.286092 0.116741 5.540430 -0.616498 -143.343002 -2.000000 2.000000 0.000000 62.394001 14.810700 147.063995 -75.947800 0.248045 0.132637 6.613400 0.764206 -121.998001 -22.560728 -5.307057 1.695550 81.223274 -0.508176 4.569130 -19.750206 -15.553642 -6.565378 -61.754410 -8.210468 -23.608030 70.283142 -0.018102 -4.506224 -15.723844 -31.323750 -3.370910 
-0.610043 33.831779 -3.107175 8.249930 2.474160 20.466101 -12.474500 4.645210 0.656899 12.595000 5.116490 0.154783 22.787001 25.629499 -26.400700 -8.603520 0.000000 0.000000 2.000000 -2.000000 0.000000 -83.604103 3.801150 135.783997 58.574699 -0.286132 0.116716 5.527170 -0.652960 -143.009995 -2.000000 2.000000 0.000000 62.364700 14.859600 147.014999 -75.967300 0.248000 0.132649 6.613270 0.764416 -122.008003 -22.892529 -5.440900 1.213092 81.743454 -0.560411 4.574618 -19.867397 -15.979239 -6.797530 -61.849167 -8.191454 -23.541948 70.155273 -0.050437 -4.505547 -15.372289 -31.564125 -3.191107 
-0.630985 33.753479 -3.341558 8.005450 2.456330 20.628599 -12.357700 4.678340 0.638582 12.760000 5.253990 0.141363 22.961399 25.842400 -26.307301 -8.603520 0.000000 0.000000 2.000000 -2.000000 0.000000 -83.623497 3.654570 135.725998 58.545399 -0.286191 0.116680 5.529120 -0.681273 -142.677994 -2.000000 2.000000 0.000000 62.345100 14.908500 146.966003 -75.977097 0.247977 0.132654 6.613140 0.764626 -122.017998 -23.173986 -5.575466 0.725798 82.224670 -0.609558 4.583627 -19.977962 -16.416189 -7.013509 -61.964550 -8.177357 -23.461704 70.066299 -0.064717 -4.491992 -15.070008 -31.822432 -3.024325 
-0.671794 33.724384 -3.601789 7.702110 2.400050 20.617599 -12.426200 4.710810 0.695609 12.592700 5.300240 0.148729 23.509899 26.064600 -26.217300 -8.603520 0.000000 0.000000 2.000000 -2.000000 0.000000 -83.370300 3.840830 136.145996 58.857899 -0.285554 0.117067 5.530190 -0.660108 -142.932007 -2.000000 2.000000 0.000000 62.628101 14.518000 146.936005 -76.123596 0.247638 0.132739 6.611290 0.770406 -122.046997 -23.416983 -5.475427 0.402791 82.646652 -0.642946 4.590024 -20.092087 -17.088842 -7.331600 -61.911121 -7.983184 -23.478781 69.702736 -0.111534 -4.476051 -14.355768 -31.973513 -2.634061 
-0.712604 33.695290 -3.862021 7.389030 2.343680 20.616501 -12.494400 4.733720 0.754720 12.415500 5.346280 0.164677 24.073601 26.278299 -26.118601 -8.603520 0.000000 0.000000 2.000000 -2.000000 0.000000 -83.117104 4.027110 136.565002 59.170399 -0.284915 0.117451 5.536870 -0.630934 -143.186005 -2.000000 2.000000 0.000000 62.910999 14.117600 146.906006 -76.260300 0.247321 0.132817 6.610760 0.771252 -122.085999 -23.649002 -5.374499 0.088650 83.078392 -0.677463 4.594174 -20.207302 -17.754192 -7.636257 -61.856487 -7.794641 -23.500126 69.358658 -0.150186 -4.453135 -13.653023 -32.126141 -2.246238 
-0.769061 33.697983 -4.149135 7.075980 2.287150 20.635599 -12.465600 4.716290 0.681566 12.453400 5.443480 0.115563 24.341499 26.265600 -25.914801 -8.603520 0.000000 0.000000 2.000000 -2.000000 0.000000 -82.872498 3.587230 136.322006 58.926300 -0.285415 0.117152 5.525560 -0.695680 -142.550995 -2.000000 2.000000 0.000000 63.301800 13.814500 147.100998 -76.514198 0.246732 0.132959 6.606480 0.783703 -122.182999 -24.032539 -5.175044 -0.077747 83.530670 -0.728076 4.612363 -20.011934 -18.597061 -7.874749 -61.674076 -7.655881 -23.580606 68.858917 -0.189145 -4.447457 -13.348774 -32.097763 -2.054434 
-0.825518 33.700569 -4.436260 6.753190 2.230530 20.645100 -12.436600 4.698860 0.608422 12.481600 5.540570 0.075405 24.634800 26.259001 -25.677401 -8.603520 0.000000 0.000000 2.000000 -2.000000 0.000000 -82.627899 3.157120 136.078995 58.682201 -0.285913 0.116850 5.518760 -0.751452 -141.916000 -2.000000 2.000000 0.000000 63.692501 13.501600 147.294998 -76.768097 0.246143 0.133099 6.612070 0.795992 -122.271004 -24.391989 -4.981920 -0.246909 83.963531 -0.784792 4.623986 -19.770536 -19.416502 -8.085711 -61.498940 -7.507094 -23.706720 68.386459 -0.257693 -4.411140 -13.022051 -32.079506 -1.857309 
-0.858482 33.719666 -4.767535 6.411660 2.348520 20.537500 -12.416500 4.617200 0.528848 12.560400 5.512620 0.028408 24.867201 26.402100 -25.504900 -8.603520 0.000000 0.000000 2.000000 -2.000000 0.000000 -82.101097 2.923270 136.382004 58.760300 -0.285754 0.116947 5.518890 -0.751552 -141.925995 -2.000000 2.000000 0.000000 64.112396 13.140100 147.401993 -77.002502 0.245598 0.133226 6.618790 0.776833 -122.105003 -24.654858 -4.953782 -0.026886 84.385086 -0.823113 4.614014 -19.488319 -19.590199 -8.039938 -61.220016 -7.499981 -23.778107 67.827286 -0.301914 -4.392465 -12.308503 -31.877337 -1.417279 
-0.891442 33.738651 -5.098831 6.070140 2.476290 20.429399 -12.396200 4.525990 0.451332 12.639300 5.484650 -0.008901 25.103600 26.534201 -25.324600 -8.603520 0.000000 0.000000 2.000000 -2.000000 0.000000 -81.574203 2.689440 136.695007 58.828602 -0.285614 0.117031 5.519140 -0.751751 -141.945007 -2.000000 2.000000 0.000000 64.542000 12.778500 147.507996 -77.227097 0.245076 0.133346 6.607460 0.752469 -121.930000 -24.866953 -4.932307 0.178449 84.758987 -0.875434 4.624271 -19.198341 -19.753195 -7.984496 -60.939178 -7.500452 -23.846800 67.277138 -0.363892 -4.363221 -11.551080 -31.671665 -0.964854 
-0.930057 33.790329 -5.495408 5.708310 2.439030 20.185301 -12.406200 4.508690 0.404926 12.689500 5.398240 -0.021564 25.330000 26.515499 -25.199900 -8.603520 0.000000 0.000000 2.000000 -2.000000 0.000000 -81.008499 2.426500 137.115005 58.984901 -0.285295 0.117224 5.522740 -0.737398 -142.052994 -2.000000 2.000000 0.000000 64.854401 12.260900 147.565994 -77.500504 0.244439 0.133488 6.613530 0.763996 -121.987999 -25.222822 -4.592122 0.716270 84.985504 -0.917912 4.625263 -18.921301 -19.849417 -7.893691 -60.626637 -7.256962 -24.034954 66.461929 -0.453345 -4.325296 -10.785450 -31.465263 -0.497558 
-0.968671 33.841892 -5.891995 5.346540 2.411350 19.942600 -12.416000 4.494830 0.367665 12.739500 5.321470 -0.035694 25.539700 26.500401 -25.054899 -8.603520 0.000000 0.000000 2.000000 -2.000000 0.000000 -80.452499 2.163560 137.535004 59.150902 -0.284955 0.117427 5.520320 -0.730732 -142.160004 -2.000000 2.000000 0.000000 65.176498 11.752900 147.632996 -77.783699 0.243779 0.133633 6.611290 0.770406 -122.046997 -25.548155 -4.263713 1.280224 85.212021 -0.951593 4.634288 -18.669849 -19.962263 -7.804947 -60.285286 -7.002152 -24.227995 65.618591 -0.516607 -4.299188 -10.041949 -31.230743 -0.058581 
